# xmcd CD database file
#
# Track frame offsets:
#	150
#	12008
#	25367
#	38187
#	52229
#	64490
#	77721
#	92192
#	104121
#	116716
#	130327
#	144977
#	158818
#	171427
#	185053
#	199145
#	212258
#
# Disc length: 2993 seconds
#
# Revision: 0
# Processed by: cddbd v1.4PL0 Copyright (c) Steve Scherf et al.
# Submitted via: CDex 1.50beta9
#
DISCID=fd0baf11
DTITLE=Ella Fitzgerald - Sugar Blues
DYEAR=1900
DGENRE=Jazz
TTITLE0=A Tisket A Tasket
TTITLE1=Once Too Often
TTITLE2=Sugar Blues
TTITLE3=I Must Have That Man
TTITLE4=Melinda The Mouse
TTITLE5=Who Are You
TTITLE6=The Starlit Hour
TTITLE7=When My Sugar Walks Down The Street
TTITLE8=After I Say I'm Sorry
TTITLE9=My Melancholy Baby
TTITLE10=And Her Tears Flowed Like Wine
TTITLE11=My Man
TTITLE12=Shake Down The Stars
TTITLE13=Imagination
TTITLE14=Taking a Chance on Love
TTITLE15=I Got It Bad (And That Aint Good)
TTITLE16=Deedle - Dee - Dum
EXTD=
EXTT0=
EXTT1=
EXTT2=
EXTT3=
EXTT4=
EXTT5=
EXTT6=
EXTT7=
EXTT8=
EXTT9=
EXTT10=
EXTT11=
EXTT12=
EXTT13=
EXTT14=
EXTT15=
EXTT16=
PLAYORDER=
